<?xml version="1.0" encoding="UTF-8" standalone="no"?>
<svg width="60px" height="60px" viewBox="0 0 60 60" version="1.1" xmlns="http://www.w3.org/2000/svg" xmlns:xlink="http://www.w3.org/1999/xlink" xmlns:sketch="http://www.bohemiancoding.com/sketch/ns">
    <!-- Generator: Sketch 3.4.4 (17249) - http://www.bohemiancoding.com/sketch -->
    <title>coder</title>
    <desc>Created with Sketch.</desc>
    <defs></defs>
    <g id="Assets" stroke="none" stroke-width="1" fill="none" fill-rule="evenodd" sketch:type="MSPage">
        <g id="Icons" sketch:type="MSArtboardGroup" transform="translate(-484.000000, -158.000000)" fill="#F5A623">
            <g id="coder" sketch:type="MSLayerGroup" transform="translate(484.000000, 158.000000)">
                <g id="Group" sketch:type="MSShapeGroup">
                    <g>
                        <path d="M54.0584416,58.9191099 L5.68181818,58.9191099 C2.77922078,58.9191099 0.263636364,56.6187559 0.263636364,53.5516173 L0.263636364,5.62757605 C0.457142857,2.75213358 2.77922078,0.260083431 5.68181818,0.260083431 L54.0584416,0.260083431 C56.961039,0.260083431 59.4766234,2.56043741 59.4766234,5.62757605 L59.4766234,53.5516173 C59.4766234,56.4270598 56.961039,58.9191099 54.0584416,58.9191099 L54.0584416,58.9191099 Z M5.68181818,3.13552591 C4.32727273,3.13552591 3.16623377,4.2857029 3.16623377,5.62757605 L3.16623377,53.5516173 C3.16623377,54.8934905 4.32727273,56.0436675 5.68181818,56.0436675 L54.0584416,56.0436675 C55.412987,56.0436675 56.574026,54.8934905 56.574026,53.5516173 L56.574026,5.62757605 C56.574026,4.2857029 55.412987,3.13552591 54.0584416,3.13552591 L5.68181818,3.13552591 L5.68181818,3.13552591 Z" id="Shape"></path>
                        <rect id="Rectangle-path" x="2.97272727" y="18.8546114" width="53.7948052" height="2.87544248"></rect>
                        <rect id="Rectangle-path" x="9.16493506" y="10.0365878" width="4.83766234" height="2.87544248"></rect>
                        <rect id="Rectangle-path" x="19.2272727" y="10.0365878" width="4.83766234" height="2.87544248"></rect>
                        <path d="M19.4207792,47.9924285 L10.9064935,39.5577973 L19.4207792,31.123166 L21.5493506,33.2318238 L14.9701299,39.5577973 L21.5493506,45.8837707 L19.4207792,47.9924285 Z" id="Shape"></path>
                        <path d="M40.3194805,47.8007324 L38.1909091,45.8837707 L44.7701299,39.5577973 L38.1909091,33.2318238 L40.3194805,31.123166 L48.8337662,39.5577973 L40.3194805,47.8007324 Z" id="Shape"></path>
                        <path d="M32.0387765,30.9005492 L34.7170031,32.0090323 L27.8541018,48.2818131 L25.1758752,47.17333 L32.0387765,30.9005492 L32.0387765,30.9005492 Z" id="Rectangle-path"></path>
                    </g>
                </g>
            </g>
        </g>
    </g>
</svg>