<?xml version="1.0" encoding="UTF-8" standalone="no"?>
<svg width="56px" height="79px" viewBox="0 0 56 79" version="1.1" xmlns="http://www.w3.org/2000/svg" xmlns:xlink="http://www.w3.org/1999/xlink" xmlns:sketch="http://www.bohemiancoding.com/sketch/ns">
    <!-- Generator: Sketch 3.4.4 (17249) - http://www.bohemiancoding.com/sketch -->
    <title>contactIcon</title>
    <desc>Created with Sketch.</desc>
    <defs></defs>
    <g id="Assets" stroke="none" stroke-width="1" fill="none" fill-rule="evenodd" sketch:type="MSPage">
        <g id="Icons" sketch:type="MSArtboardGroup" transform="translate(-72.000000, -164.000000)" fill-opacity="0.87" fill="#4A4A4A">
            <g id="contactIcon" sketch:type="MSLayerGroup" transform="translate(74.000000, 166.000000)">
                <path d="M26.5,0.528571429 C12.19,0.528571429 0.3975,12.1571429 0.3975,26.5607143 C0.3975,40.9642857 12.19,52.4607143 26.5,52.4607143 C40.81,52.4607143 52.6025,40.8321429 52.6025,26.4285714 C52.6025,12.025 40.81,0.528571429 26.5,0.528571429 L26.5,0.528571429 Z M26.5,47.3071429 C21.995,47.3071429 17.8875,45.8535714 14.4425,43.475 C19.08,41.7571429 21.3325,39.775 22.525,38.0571429 C23.585,38.4535714 24.7775,38.5857143 26.1025,38.5857143 L26.235,38.5857143 L26.3675,38.5857143 L26.5,38.5857143 C27.9575,38.5857143 29.15,38.3214286 30.3425,37.925 C31.4025,39.6428571 33.7875,41.625 38.425,43.475 C35.1125,45.9857143 30.8725,47.3071429 26.5,47.3071429 L26.5,47.3071429 Z M19.61,21.9357143 L19.61,21.8035714 C19.875,15.4607143 24.2475,14.8 26.1025,14.8 L26.235,14.8 L26.5,14.8 L26.6325,14.8 C28.4875,14.8 32.86,15.4607143 33.125,21.8035714 L33.125,21.9357143 C33.2575,23.7857143 33.2575,29.0714286 30.8725,31.8464286 C29.8125,33.0357143 28.355,33.5642857 26.5,33.6964286 C26.5,33.6964286 26.5,33.6964286 26.3675,33.6964286 C24.5125,33.6964286 23.055,33.0357143 21.995,31.8464286 C19.345,29.0714286 19.345,23.7857143 19.61,21.9357143 L19.61,21.9357143 Z M42.665,39.6428571 C37.2325,37.925 35.245,36.075 34.5825,35.15 C38.8225,30.3928571 38.16,22.4642857 38.0275,21.5392857 C37.63,12.8178571 31.535,9.64642857 26.3675,9.64642857 L26.1025,9.64642857 L25.8375,9.64642857 C20.8025,9.64642857 14.7075,12.6857143 14.1775,21.5392857 C14.045,22.4642857 13.515,30.525 17.755,35.2821429 C17.755,35.4142857 17.8875,35.4142857 17.8875,35.5464286 C17.225,36.3392857 15.2375,38.0571429 9.9375,39.775 C7.0225,36.2071429 5.3,31.5821429 5.3,26.6928571 C5.3,15.1964286 14.7075,5.81428571 26.235,5.81428571 C37.7625,5.81428571 47.435,14.9321429 47.435,26.4285714 C47.435,31.45 45.7125,36.075 42.665,39.6428571 L42.665,39.6428571 Z M44.6525,63.4285714 L8.3475,63.4285714 C6.89,63.4285714 5.83,62.2392857 5.83,60.9178571 C5.83,59.4642857 7.0225,58.4071429 8.3475,58.4071429 L44.785,58.4071429 C46.2425,58.4071429 47.3025,59.5964286 47.3025,60.9178571 C47.3025,62.3714286 46.11,63.4285714 44.6525,63.4285714 L44.6525,63.4285714 Z M37.0840514,68.45 C38.4740746,68.45 39.4850005,69.6392857 39.4850005,70.9607143 C39.4850005,72.2821429 38.3477088,73.4714286 37.0840514,73.4714286 L14.5909491,73.4714286 C13.2009259,73.4714286 12.19,72.2821429 12.19,70.9607143 C12.19,69.6392857 13.3272917,68.45 14.5909491,68.45 L37.0840514,68.45 L37.0840514,68.45 Z" id="Shape" sketch:type="MSShapeGroup"></path>
            </g>
        </g>
    </g>
</svg>