<?xml version="1.0" encoding="UTF-8" standalone="no"?>
<svg width="72px" height="72px" viewBox="0 0 72 72" version="1.1" xmlns="http://www.w3.org/2000/svg" xmlns:xlink="http://www.w3.org/1999/xlink" xmlns:sketch="http://www.bohemiancoding.com/sketch/ns">
    <!-- Generator: Sketch 3.4.4 (17249) - http://www.bohemiancoding.com/sketch -->
    <title>garrLogo</title>
    <desc>Created with Sketch.</desc>
    <defs></defs>
    <g id="Page-1" stroke="none" stroke-width="1" fill="none" fill-rule="evenodd" sketch:type="MSPage">
        <g id="website-v2-(mobile)" sketch:type="MSArtboardGroup" transform="translate(-205.000000, -728.000000)">
            <rect id="Rectangle-3" fill="#D94242" sketch:type="MSShapeGroup" x="205" y="728" width="72" height="72" rx="2"></rect>
            <path d="M259.717,775.473 C259.557,777.989 258.403,777.614 257.729,777.682 C257.055,777.751 256.19,777.717 256.029,776.82 C255.869,775.922 255.708,773.336 255.773,772.163 C255.837,770.991 256.927,770.785 256.927,770.785 C257.761,770.577 258.699,770.728 259.534,770.853 C260.007,770.923 259.877,772.957 259.717,775.473 M250.909,775.35 C250.772,777.165 250.806,778.097 250.461,778.372 C250.115,778.648 245.219,779.476 243.7,779.579 C242.184,779.683 241.748,778.747 241.459,777.427 C241.249,776.469 240.149,772.82 241.391,772.2 C242.191,771.799 244.425,771.475 244.425,771.475 C246.391,771.371 249.529,771.2 250.254,771.682 C250.978,772.164 251.048,773.535 250.909,775.35 M243.655,758.756 C251.295,752.809 259.163,748.656 262.789,748.656 C263.23,748.656 263.807,748.723 264.054,749.04 C265.032,750.297 261.954,755.824 253.706,763.064 C252.762,762.022 251.181,761.442 249.202,761.442 C246.902,761.442 244.193,762.18 241.151,763.635 C238.624,764.844 236.018,766.691 233.76,768.619 C236.243,765.457 239.617,761.902 243.655,758.756 M260.361,769.887 C259.705,769.818 257.911,769.577 256.29,769.681 C254.67,769.785 254.394,770.475 254.048,771.061 C253.703,771.647 252.807,771.51 252.428,771.268 C252.048,771.027 251.462,770.061 250.427,770.061 C249.392,770.061 245.357,770.043 242.46,770.406 C239.563,770.768 238.977,772.026 238.977,772.026 L230.176,774.575 C232.481,771.688 237.371,767.28 241.864,765.128 C244.643,763.799 247.18,763.097 249.202,763.097 C251.017,763.097 252.329,763.664 252.802,764.654 L253.269,765.629 L254.088,764.925 C260.841,759.122 267.845,751.215 265.361,748.024 C264.832,747.345 263.967,747 262.789,747 C259.342,747 252.904,750.088 246.08,754.902 C243.773,753.654 241.136,752.938 238.333,752.938 C229.313,752.938 222,760.251 222,769.271 C222,772.211 222.648,776.232 224.008,778.615 C224.008,778.615 225.112,778.029 226.331,777.718 C227.55,777.408 230.354,777.787 231.182,777.58 C232.009,777.373 235.769,776.338 236.562,776.062 C237.355,775.786 238.597,775.578 239.184,776.027 C239.771,776.475 239.978,779.255 240.598,780.22 C241.219,781.186 242.254,781.083 243.577,780.98 C244.904,780.876 250.324,779.703 250.946,779.566 C251.566,779.428 251.98,779.152 252.048,778.531 C252.117,777.911 252.29,776.13 252.428,774.682 C252.565,773.233 252.911,772.922 253.429,772.957 C253.946,772.993 253.98,773.44 254.153,773.982 C254.324,774.523 254.463,777.358 254.601,777.911 C254.738,778.462 254.946,778.945 255.842,778.945 C256.738,778.945 258.774,778.703 259.567,778.6 C260.361,778.496 260.498,777.979 260.533,777.427 C260.568,776.874 260.775,774.406 260.843,772.854 C260.912,771.302 261.016,769.956 260.361,769.887" id="Fill-1" fill="#EFC150" sketch:type="MSShapeGroup"></path>
        </g>
    </g>
</svg>