<?xml version="1.0" encoding="UTF-8" standalone="no"?>
<svg width="44px" height="35px" viewBox="0 0 44 35" version="1.1" xmlns="http://www.w3.org/2000/svg" xmlns:xlink="http://www.w3.org/1999/xlink" xmlns:sketch="http://www.bohemiancoding.com/sketch/ns">
    <!-- Generator: Sketch 3.4.4 (17249) - http://www.bohemiancoding.com/sketch -->
    <title>logo</title>
    <desc>Created with Sketch.</desc>
    <defs></defs>
    <g id="Assets" stroke="none" stroke-width="1" fill="none" fill-rule="evenodd" sketch:type="MSPage">
        <g id="Icons" sketch:type="MSArtboardGroup" transform="translate(-127.000000, -606.000000)" fill="#EFC150">
            <g id="logo" sketch:type="MSLayerGroup" transform="translate(127.000000, 606.000000)">
                <path d="M37.7168,29.4287 C37.5568,31.9447 36.4028,31.5697 35.7288,31.6377 C35.0548,31.7067 34.1898,31.6727 34.0288,30.7757 C33.8688,29.8777 33.7078,27.2917 33.7728,26.1187 C33.8368,24.9467 34.9268,24.7407 34.9268,24.7407 C35.7608,24.5327 36.6988,24.6837 37.5338,24.8087 C38.0068,24.8787 37.8768,26.9127 37.7168,29.4287 M28.9088,29.3057 C28.7718,31.1207 28.8058,32.0527 28.4608,32.3277 C28.1148,32.6037 23.2188,33.4317 21.6998,33.5347 C20.1838,33.6387 19.7478,32.7027 19.4588,31.3827 C19.2488,30.4247 18.1488,26.7757 19.3908,26.1557 C20.1908,25.7547 22.4248,25.4307 22.4248,25.4307 C24.3908,25.3267 27.5288,25.1557 28.2538,25.6377 C28.9778,26.1197 29.0478,27.4907 28.9088,29.3057 M21.6548,12.7117 C29.2948,6.7647 37.1628,2.6117 40.7888,2.6117 C41.2298,2.6117 41.8068,2.6787 42.0538,2.9957 C43.0318,4.2527 39.9538,9.7797 31.7058,17.0197 C30.7618,15.9777 29.1808,15.3977 27.2018,15.3977 C24.9018,15.3977 22.1928,16.1357 19.1508,17.5907 C16.6238,18.7997 14.0178,20.6467 11.7598,22.5747 C14.2428,19.4127 17.6168,15.8577 21.6548,12.7117 M38.3608,23.8427 C37.7048,23.7737 35.9108,23.5327 34.2898,23.6367 C32.6698,23.7407 32.3938,24.4307 32.0478,25.0167 C31.7028,25.6027 30.8068,25.4657 30.4278,25.2237 C30.0478,24.9827 29.4618,24.0167 28.4268,24.0167 C27.3918,24.0167 23.3568,23.9987 20.4598,24.3617 C17.5628,24.7237 16.9768,25.9817 16.9768,25.9817 L8.1758,28.5307 C10.4808,25.6437 15.3708,21.2357 19.8638,19.0837 C22.6428,17.7547 25.1798,17.0527 27.2018,17.0527 C29.0168,17.0527 30.3288,17.6197 30.8018,18.6097 L31.2688,19.5847 L32.0878,18.8807 C38.8408,13.0777 45.8448,5.1707 43.3608,1.9797 C42.8318,1.3007 41.9668,0.9557 40.7888,0.9557 C37.3418,0.9557 30.9038,4.0437 24.0798,8.8577 C21.7728,7.6097 19.1358,6.8937 16.3328,6.8937 C7.3128,6.8937 -0.0002,14.2067 -0.0002,23.2267 C-0.0002,26.1667 0.6478,30.1877 2.0078,32.5707 C2.0078,32.5707 3.1118,31.9847 4.3308,31.6737 C5.5498,31.3637 8.3538,31.7427 9.1818,31.5357 C10.0088,31.3287 13.7688,30.2937 14.5618,30.0177 C15.3548,29.7417 16.5968,29.5337 17.1838,29.9827 C17.7708,30.4307 17.9778,33.2107 18.5978,34.1757 C19.2188,35.1417 20.2538,35.0387 21.5768,34.9357 C22.9038,34.8317 28.3238,33.6587 28.9458,33.5217 C29.5658,33.3837 29.9798,33.1077 30.0478,32.4867 C30.1168,31.8667 30.2898,30.0857 30.4278,28.6377 C30.5648,27.1887 30.9108,26.8777 31.4288,26.9127 C31.9458,26.9487 31.9798,27.3957 32.1528,27.9377 C32.3238,28.4787 32.4628,31.3137 32.6008,31.8667 C32.7378,32.4177 32.9458,32.9007 33.8418,32.9007 C34.7378,32.9007 36.7738,32.6587 37.5668,32.5557 C38.3608,32.4517 38.4978,31.9347 38.5328,31.3827 C38.5678,30.8297 38.7748,28.3617 38.8428,26.8097 C38.9118,25.2577 39.0158,23.9117 38.3608,23.8427" id="Fill-1" sketch:type="MSShapeGroup"></path>
            </g>
        </g>
    </g>
</svg>