<?xml version="1.0" encoding="UTF-8" standalone="no"?>
<svg width="98px" height="75px" viewBox="0 0 98 75" version="1.1" xmlns="http://www.w3.org/2000/svg" xmlns:xlink="http://www.w3.org/1999/xlink" xmlns:sketch="http://www.bohemiancoding.com/sketch/ns">
    <!-- Generator: Sketch 3.4.4 (17249) - http://www.bohemiancoding.com/sketch -->
    <title>ninjaStars</title>
    <desc>Created with Sketch.</desc>
    <defs></defs>
    <g id="Assets" stroke="none" stroke-width="1" fill="none" fill-rule="evenodd" sketch:type="MSPage">
        <g id="Icons" sketch:type="MSArtboardGroup" transform="translate(-87.000000, -321.000000)" fill-opacity="0.87" fill="#4A4A4A">
            <g id="ninjaStars" sketch:type="MSLayerGroup" transform="translate(77.000000, 321.503963)">
                <g id="Group" sketch:type="MSShapeGroup">
                    <g transform="translate(14.679650, 0.000000)" id="Shape">
                        <path d="M35.472151,31.7509216 C35.3852964,31.387878 35.066014,31.0927784 34.6390808,30.9812287 L22.0598441,27.7097802 L13.5994724,19.3323977 C13.3132193,19.048453 12.8667132,18.9176356 12.4226538,18.9886218 C11.9847109,19.0606221 11.6287294,19.3263132 11.494166,19.6802299 L7.54778672,30.1040424 L4.62898297,32.1301906 L4.62898297,9.54948896 C4.62898297,8.4988936 3.60140747,7.64807361 2.33528766,7.64807361 C1.06916784,7.64807361 0.0415923417,8.4988936 0.0415923417,9.54948896 L0.0415923417,19.6903708 L0.0415923417,50.1556081 L0.0415923417,60.29649 C0.0415923417,61.3460712 1.06916784,62.1979053 2.33528766,62.1979053 C3.60140747,62.1979053 4.62898297,61.3460712 4.62898297,60.29649 L4.62898297,40.6252073 L10.4335613,42.1331565 L18.8963795,50.5135812 C19.1300306,50.7458074 19.4762257,50.8766248 19.8346538,50.8766248 C19.9129452,50.8766248 19.9936833,50.8695262 20.0731981,50.856343 C20.511141,50.7833287 20.8671225,50.5186517 21.001686,50.1647349 L24.9468419,39.7388943 L35.0586742,32.7264745 C35.399976,32.4891778 35.5590056,32.1149793 35.472151,31.7509216 L35.472151,31.7509216 Z M19.0480692,36.469474 C18.5489611,37.0890818 17.7880659,37.5109425 16.9048403,37.6569712 C15.1065832,37.9540991 13.3046561,36.9481236 12.9486746,35.4675548 C12.7725188,34.7363972 12.9511212,33.9930706 13.4502293,33.3734627 C13.9493374,32.7538548 14.7102326,32.3330082 15.5934582,32.1879936 C15.8124297,32.1514865 16.0338477,32.1332329 16.2540425,32.1332329 C17.8516777,32.1332329 19.236458,33.077349 19.5471773,34.3804523 C19.7233331,35.1085676 19.5471773,35.8498661 19.0480692,36.469474 L19.0480692,36.469474 Z"></path>
                        <path d="M72.8392001,55.8618823 L61.9468998,49.7023107 L56.7845562,39.6466122 C56.6096237,39.3058786 56.2242829,39.0716242 55.7790002,39.034103 C55.3349407,38.9955676 54.8994445,39.1669485 54.6486671,39.4721891 L47.2219875,48.5036585 L35.0990432,52.7861529 C34.6867897,52.9311675 34.4054297,53.2506053 34.3601675,53.6197334 C34.3161285,53.9878474 34.519197,54.3468346 34.8886349,54.5567508 L45.7711488,60.7122661 L50.9383856,70.7649223 C51.1145414,71.1056559 51.4998822,71.3399103 51.9439416,71.3764175 C51.9843106,71.3804738 52.0234564,71.382502 52.0638254,71.382502 C52.4662925,71.382502 52.8455168,71.2182197 53.0742746,70.9383314 L60.496061,61.9119324 L72.6287918,57.6324803 C73.039822,57.4864516 73.3224052,57.1670138 73.3676675,56.7988998 C73.4129297,56.4307858 73.2086379,56.0697704 72.8392001,55.8618823 L72.8392001,55.8618823 Z M53.534237,57.9813266 C52.6400017,57.9103405 51.8313976,57.5554096 51.2637845,56.9834639 C50.6900548,56.4074618 50.4233745,55.6783324 50.5126757,54.9309494 C50.6839383,53.4970287 52.122544,52.4160107 53.8596359,52.4160107 C53.9697333,52.4160107 54.0798307,52.4210811 54.1911513,52.4291938 C56.0371173,52.580293 57.3925384,53.9503261 57.2151593,55.4805852 C57.0316636,57.0047597 55.4854072,58.1395244 53.534237,57.9813266 L53.534237,57.9813266 Z"></path>
                        <path d="M80.9191241,21.2652498 L73.6991829,12.1222307 L73.5731826,1.19543049 C73.5682894,0.825288299 73.3211819,0.485568756 72.927278,0.311145588 C72.5321507,0.13672242 72.0562854,0.15396192 71.6795077,0.356779557 L60.6489741,6.34294212 L47.4703182,6.45144955 C47.0238122,6.45550591 46.6140053,6.66136581 46.403597,6.98790221 C46.1919654,7.3144386 46.2139849,7.71094708 46.4586457,8.02125807 L53.6736937,17.1632631 L53.8082571,28.0880351 C53.8131504,28.4581773 54.0614811,28.7978968 54.455385,28.97232 C54.6352108,29.052433 54.8346093,29.0919824 55.0315613,29.0919824 C55.2652124,29.0919824 55.4988635,29.0362075 55.701932,28.9256719 L66.7226792,22.9435657 L79.9062283,22.8350583 C80.3527343,22.8310019 80.7625412,22.625142 80.9729495,22.2986056 C81.1858044,21.9720692 81.1650083,21.5755608 80.9191241,21.2652498 L80.9191241,21.2652498 Z M66.6541742,15.9575122 C65.8113176,17.2687282 63.7194675,17.8163359 62.104706,17.1014037 C61.3132282,16.7525573 60.7321587,16.1694566 60.4703716,15.460609 C60.2073612,14.7456768 60.2978858,13.9871389 60.7260422,13.3239252 C61.3095583,12.4163163 62.4472312,11.8524832 63.6962247,11.8524832 C64.2516048,11.8524832 64.7837421,11.9630188 65.2767337,12.1820619 C66.9122914,12.9061209 67.5312833,14.5996481 66.6541742,15.9575122 L66.6541742,15.9575122 Z"></path>
                        <path d="M91.7062203,6.52852026 L79.4254697,6.52852026 C78.7489825,6.52852026 78.2021656,6.98283176 78.2021656,7.54260844 C78.2021656,8.10238512 78.7489825,8.55669663 79.4254697,8.55669663 L91.7062203,8.55669663 C92.3827075,8.55669663 92.9295244,8.10238512 92.9295244,7.54260844 C92.9295244,6.98283176 92.3827075,6.52852026 91.7062203,6.52852026 L91.7062203,6.52852026 Z"></path>
                        <path d="M88.6357268,13.6271376 L82.4947399,13.6271376 C81.8182527,13.6271376 81.2714357,14.0814491 81.2714357,14.6412257 C81.2714357,15.2010024 81.8182527,15.6553139 82.4947399,15.6553139 L88.6357268,15.6553139 C89.312214,15.6553139 89.859031,15.2010024 89.859031,14.6412257 C89.859031,14.0814491 89.312214,13.6271376 88.6357268,13.6271376 L88.6357268,13.6271376 Z"></path>
                        <path d="M81.8745247,47.0910336 L69.5937741,47.0910336 C68.9172869,47.0910336 68.37047,47.5453451 68.37047,48.1051218 C68.37047,48.6659126 68.9172869,49.11921 69.5937741,49.11921 L81.8745247,49.11921 C82.5510119,49.11921 83.0978288,48.6659126 83.0978288,48.1051218 C83.0978288,47.5463592 82.5497886,47.0910336 81.8745247,47.0910336 L81.8745247,47.0910336 Z"></path>
                        <path d="M72.6630443,65.8516651 L66.5220574,65.8516651 C65.8455702,65.8516651 65.2987532,66.3059766 65.2987532,66.8657532 C65.2987532,67.426544 65.8455702,67.8798414 66.5220574,67.8798414 L72.6630443,67.8798414 C73.3395315,67.8798414 73.8863485,67.426544 73.8863485,66.8657532 C73.8863485,66.3069906 73.3395315,65.8516651 72.6630443,65.8516651 L72.6630443,65.8516651 Z"></path>
                        <path d="M66.5232807,42.1909595 C65.8467935,42.1909595 65.2999765,42.6442569 65.2999765,43.2050477 C65.2999765,43.7648244 65.8467935,44.2191359 66.5232807,44.2191359 L72.6642676,44.2191359 C73.3407548,44.2191359 73.8875718,43.7648244 73.8875718,43.2050477 C73.8875718,42.6442569 73.3407548,42.1909595 72.6642676,42.1909595 L66.5232807,42.1909595 L66.5232807,42.1909595 Z"></path>
                    </g>
                </g>
            </g>
        </g>
    </g>
</svg>