<?xml version="1.0" encoding="UTF-8" standalone="no"?>
<svg width="60px" height="76px" viewBox="0 0 60 76" version="1.1" xmlns="http://www.w3.org/2000/svg" xmlns:xlink="http://www.w3.org/1999/xlink" xmlns:sketch="http://www.bohemiancoding.com/sketch/ns">
    <!-- Generator: Sketch 3.4.4 (17249) - http://www.bohemiancoding.com/sketch -->
    <title>oracle</title>
    <desc>Created with Sketch.</desc>
    <defs></defs>
    <g id="Assets" stroke="none" stroke-width="1" fill="none" fill-rule="evenodd" sketch:type="MSPage">
        <g id="Icons" sketch:type="MSArtboardGroup" transform="translate(-222.000000, -310.000000)" fill-opacity="0.87" fill="#4A4A4A">
            <g id="oracle" sketch:type="MSLayerGroup" transform="translate(203.878017, 310.000000)">
                <g id="Group" sketch:type="MSShapeGroup">
                    <path d="M57.4007515,35.1862991 C57.2785645,35.292062 57.1563775,35.3978249 57.0341904,35.5035877 L57.0341904,17.8604946 C57.0341904,15.6873195 55.012286,13.9279625 52.5249072,13.9279625 L51.95858,13.9279625 C51.2700658,13.9279625 50.6145227,14.0622646 50.0258915,14.3031689 L50.0258915,13.43776 C50.0258915,11.2645849 48.0039871,9.50522797 45.5166082,9.50522797 L44.9502811,9.50522797 L44.9502811,9.50522797 C43.7390779,9.50522797 42.6064235,9.90897352 41.7511143,10.6493136 C40.8958051,11.3896537 40.4293609,12.3700587 40.4293609,13.4184541 L40.4293609,14.2930962 C39.8407298,14.0530313 39.1851866,13.9279625 38.5189764,13.9279625 L37.9526492,13.9279625 C35.4536335,13.9279625 33.421062,15.6873195 33.421062,17.8504219 L33.4103949,27.1189425 C32.8217637,26.8788776 32.1778574,26.7437362 31.4883735,26.7437362 L30.9220463,26.7437362 C28.4230306,26.7437362 26.3904591,28.5030931 26.3904591,30.6661956 L26.3904591,47.9340823 C26.3904591,52.337511 28.3677555,56.4714961 31.9664545,59.5873038 C35.5651534,62.7022721 40.3420845,64.4137839 45.4293318,64.4137839 C55.7706214,64.4137839 64.2121936,57.2412148 64.4565677,48.3479006 C64.4565677,48.3193614 64.4672348,48.2807495 64.4672348,48.2421377 L64.4672348,47.9340823 L64.4672348,39.8004141 L64.4672348,33.0030513 L63.1561486,33.0030513 C61.2224903,32.9938181 59.066762,33.8113818 57.4007515,35.1862991 L57.4007515,35.1862991 Z M45.4380594,62.1356853 C41.0509632,62.1356853 36.9295753,60.6550052 33.8302916,57.9723216 C30.7310078,55.289638 29.0203894,51.7230791 29.0203894,47.9248491 L29.0203894,30.6578017 C29.0203894,29.7445477 29.8756986,29.0042076 30.9307739,29.0042076 L31.4971011,29.0042076 C32.5521764,29.0042076 33.4074856,29.7445477 33.4074856,30.6578017 L33.4181528,30.6578017 L33.4074856,37.8782159 C33.4074856,38.5035599 33.9961168,39.0130683 34.7185719,39.0130683 L34.7185719,39.0130683 C35.4410269,39.0130683 36.0296581,38.5035599 36.0296581,37.8782159 L36.0519621,17.8319554 C36.0519621,16.9187014 36.9072713,16.1783613 37.9623466,16.1783613 L38.5286738,16.1783613 C39.028089,16.1783613 39.50617,16.3512752 39.862064,16.6685638 C40.217958,16.9858525 40.4177241,17.4089039 40.4177241,17.8512613 L40.4177241,36.3597633 C40.4177241,36.9851073 41.0063552,37.4946157 41.7288103,37.4946157 C42.4512654,37.4946157 43.0398965,36.9851073 43.0398965,36.3597633 L43.0398965,29.1972668 L43.0622005,13.4192935 C43.0622005,12.9769361 43.2619666,12.5639573 43.6178606,12.2466687 C43.9844217,11.9293801 44.4625027,11.7656994 44.972585,11.7656994 L44.972585,11.7656994 L45.5389122,11.7656994 C46.5833204,11.7656994 47.4269928,12.5152728 47.4269928,13.4385994 L47.4269928,17.861334 L47.4269928,19.3613201 L47.4269928,35.0519971 C47.4269928,35.677341 48.0156239,36.1868494 48.738079,36.1868494 C49.4605341,36.1868494 50.0491652,35.677341 50.0491652,35.0519971 L50.0491652,19.3604807 L50.0491652,17.8604946 C50.0491652,16.9564739 50.9374455,16.1875946 51.9818537,16.1875946 L52.5481809,16.1875946 C53.5925891,16.1875946 54.4362614,16.937168 54.4362614,17.8604946 L54.4362614,41.2240159 L54.4362614,43.3392733 C54.4362614,43.9646172 55.0248926,44.4741256 55.7473477,44.4741256 C56.4698027,44.4741256 57.0584339,43.9646172 57.0584339,43.3392733 L57.0584339,41.2240159 C57.0584339,39.0701467 58.2356962,37.6473843 59.2248293,36.8298205 C60.0132266,36.1759374 60.9577518,35.6949682 61.868336,35.44567 L61.868336,39.7911808 L61.868336,47.9248491 C61.8547597,55.761374 54.4905668,62.1356853 45.4380594,62.1356853 L45.4380594,62.1356853 Z M43.2163889,55.627072 C43.2057218,55.2233264 42.8168567,54.8959651 42.3504126,54.8959651 L42.3504126,54.8959651 C41.7171734,54.8959651 41.1285423,54.6844394 40.6844021,54.2999998 C40.240262,53.9155601 39.9958879,53.4060517 39.9958879,52.8579314 C39.9958879,52.4441132 39.6070228,52.0982854 39.1182747,52.0982854 C38.6295266,52.0982854 38.2406615,52.43488 38.2406615,52.8579314 C38.2406615,53.4060517 37.9962875,53.9155601 37.5521473,54.2999998 C37.1080071,54.6844394 36.519376,54.8959651 35.8861368,54.8959651 L35.8861368,54.8959651 L35.8861368,54.8959651 C35.4080558,54.8959651 35.0308276,55.222487 35.0201605,55.627072 L35.0201605,55.6463779 L35.0201605,55.6463779 L35.0201605,55.6463779 C35.0201605,56.0408902 35.3644176,56.3581788 35.7978906,56.3959512 L35.8871066,56.3959512 L35.8871066,56.3959512 L35.8871066,56.3959512 L35.8871066,56.3959512 C36.5203457,56.3959512 37.1089769,56.607477 37.553117,56.9919166 C37.9972572,57.3763562 38.2416312,57.8858646 38.2416312,58.4339849 C38.2416312,58.8478031 38.6304963,59.1936309 39.1192444,59.1936309 C39.6079926,59.1936309 39.9968576,58.8570364 39.9968576,58.4339849 C39.9968576,57.8858646 40.2412317,57.3763562 40.6853719,56.9919166 C41.129512,56.607477 41.7181432,56.3959512 42.3513823,56.3959512 L42.3513823,56.3959512 L42.3513823,56.3959512 C42.3959903,56.3959512 42.4512654,56.3959512 42.4958733,56.386718 L42.5288444,56.386718 C42.5395116,56.386718 42.5511484,56.3774847 42.5618155,56.3774847 C42.5841195,56.3774847 42.5947866,56.3682514 42.6170906,56.3682514 C42.6277577,56.3682514 42.6277577,56.3590182 42.6393946,56.3590182 C42.6616986,56.3497849 42.6723657,56.3497849 42.6946697,56.3397122 C42.7053368,56.3397122 42.7169737,56.330479 42.7276408,56.330479 C42.7383079,56.3212457 42.7606119,56.3212457 42.7722488,56.311173 C42.7829159,56.311173 42.7829159,56.3019398 42.7945527,56.3019398 C42.8168567,56.2927065 42.8275238,56.2826339 42.8498278,56.2734006 C42.8498278,56.2734006 42.8498278,56.2734006 42.8604949,56.2641673 C43.082565,56.1298653 43.2377232,55.8990336 43.2377232,55.6388234 L43.2377232,55.6388234 L43.2377232,55.6388234 C43.2163889,55.6463779 43.2163889,55.6363052 43.2163889,55.627072 L43.2163889,55.627072 Z M39.450895,55.9342879 C39.3287079,56.0400508 39.2288249,56.1458136 39.117305,56.2515765 C39.0174219,56.1365804 38.905902,56.0308175 38.783715,55.9342879 C38.6615279,55.828525 38.5393409,55.7420681 38.4171539,55.6455385 C38.550008,55.5590815 38.6721951,55.4625519 38.783715,55.3567891 C38.905902,55.2510262 39.0057851,55.1452633 39.117305,55.0395005 C39.217188,55.1544966 39.3287079,55.2602595 39.450895,55.3567891 C39.573082,55.4625519 39.695269,55.5490089 39.817456,55.6455385 C39.6846019,55.7328348 39.5624149,55.828525 39.450895,55.9342879 L39.450895,55.9342879 Z M77.6062195,44.5991944 L77.6062195,44.5706552 L77.6062195,44.5320434 L77.6062195,44.4934316 L77.6062195,44.4934316 L77.6062195,44.4934316 L77.6062195,44.4548197 L77.6062195,44.4162079 C77.6062195,44.396902 77.6062195,44.3876687 77.5955524,44.3683628 L77.5955524,44.3398236 C77.5955524,44.3205177 77.5848852,44.3112844 77.5848852,44.2919785 C77.5848852,44.2827452 77.5848852,44.2726726 77.5742181,44.2634393 C77.5742181,44.2441334 77.563551,44.2349001 77.5519141,44.2155942 C77.5519141,44.2063609 77.541247,44.1962883 77.541247,44.187055 C77.5305799,44.1677491 77.518943,44.1484432 77.5082759,44.1392099 C77.5082759,44.1392099 77.5082759,44.1299766 77.4976088,44.1299766 C77.4869417,44.1106707 77.4753048,44.1014374 77.4646377,44.0821315 C77.4646377,44.0728983 77.4539706,44.0728983 77.4539706,44.0628256 C77.4433035,44.0535923 77.4316666,44.0435197 77.4316666,44.0342864 C77.4209995,44.0250531 77.4209995,44.0149805 77.4093626,44.0057472 C77.3986955,43.996514 77.3870586,43.9864413 77.3870586,43.977208 C77.3763915,43.9679748 77.3647546,43.9579021 77.3540875,43.9486688 C77.3434204,43.9394356 77.3317835,43.9293629 77.3211164,43.9201297 C77.3104493,43.9108964 77.2988124,43.9008237 77.2881453,43.9008237 C77.2774782,43.8915905 77.2658413,43.8915905 77.2551742,43.8815178 C77.2445071,43.8722846 77.2328702,43.8622119 77.2222031,43.8622119 C77.211536,43.8622119 77.211536,43.8529786 77.1998991,43.8529786 C77.1775951,43.8437454 77.166928,43.8336727 77.144624,43.8244394 C77.144624,43.8244394 77.1339569,43.8244394 77.1339569,43.8152062 C77.1116529,43.8059729 77.089349,43.7959003 77.0786818,43.786667 C77.0680147,43.786667 77.0563779,43.7774337 77.0457107,43.7774337 C77.0234068,43.7682005 77.0127396,43.7682005 76.9904356,43.7581278 C76.9797685,43.7581278 76.9681317,43.7581278 76.9574645,43.7488945 C76.9351606,43.7488945 76.9244934,43.7396613 76.9021895,43.7396613 L76.8692184,43.7396613 C76.8469144,43.7396613 76.8362473,43.730428 76.8139433,43.730428 L76.7693353,43.730428 L76.7247273,43.730428 L76.7247273,43.730428 L76.7247273,43.730428 C75.547465,43.730428 74.4477817,43.3359157 73.6147765,42.6148816 C72.7817713,41.8938474 72.3259943,40.9419816 72.3259943,39.9229647 C72.3259943,39.5091465 71.9371292,39.1633187 71.4483811,39.1633187 C70.9596329,39.1633187 70.5707679,39.4999133 70.5707679,39.9229647 C70.5707679,40.9419816 70.1149909,41.8938474 69.2819856,42.6148816 C68.4489804,43.3359157 67.3492971,43.730428 66.1720348,43.730428 L66.1720348,43.730428 L66.1720348,43.730428 C65.7608657,43.730428 65.4059415,43.9805656 65.3167256,44.3171601 L65.3167256,44.3196783 C65.3167256,44.3389842 65.3167256,44.3482175 65.3060584,44.3675234 L65.3060584,44.3960626 L65.3060584,44.4346744 L65.3060584,44.4732863 L65.3060584,44.4732863 L65.3060584,44.4732863 L65.3060584,44.5118981 L65.3060584,44.5505099 C65.3060584,44.5698159 65.3060584,44.5790491 65.3167256,44.598355 L65.3167256,44.6268942 C65.3167256,44.6462001 65.3273927,44.6554334 65.3273927,44.6747393 C65.3273927,44.6839726 65.3273927,44.6940453 65.3380598,44.7032785 C65.3380598,44.7225844 65.3487269,44.7318177 65.3603638,44.7511236 C65.3603638,44.7603569 65.3710309,44.7704296 65.3710309,44.7796628 C65.381698,44.7989687 65.3933349,44.8182747 65.404002,44.8275079 C65.404002,44.8275079 65.404002,44.8367412 65.4146691,44.8367412 C65.4253363,44.8560471 65.4369731,44.8652804 65.4476402,44.8845863 C65.4476402,44.8938196 65.4583074,44.8938196 65.4583074,44.9038922 C65.4689745,44.9131255 65.4806113,44.9231981 65.4806113,44.9324314 C65.4912785,44.9416647 65.4912785,44.9517373 65.5029153,44.9609706 C65.5135825,44.9702039 65.5252193,44.9802765 65.5252193,44.9895098 C65.5358864,44.998743 65.5475233,45.0088157 65.5581904,45.018049 C65.5688575,45.0272822 65.5804944,45.0373549 65.5911615,45.0465882 C65.6018286,45.0558214 65.6134655,45.0658941 65.6241326,45.0658941 C65.6347997,45.0751273 65.6464366,45.0751273 65.6571037,45.0852 C65.6677708,45.0952726 65.6794077,45.1045059 65.6900748,45.1045059 C65.700742,45.1045059 65.700742,45.1137392 65.7123788,45.1137392 C65.7346828,45.1229724 65.7453499,45.1330451 65.7676539,45.1422784 C65.7676539,45.1422784 65.778321,45.1422784 65.778321,45.1515116 C65.800625,45.1607449 65.822929,45.1708176 65.8335961,45.1800508 C65.8442632,45.1800508 65.8559001,45.1892841 65.8665672,45.1892841 C65.8888712,45.1985174 65.8995383,45.1985174 65.9218423,45.20859 C65.9325094,45.20859 65.9441463,45.20859 65.9548134,45.2178233 C65.9771174,45.2178233 65.9877845,45.2270565 66.0100885,45.2270565 L66.0430596,45.2270565 C66.0653636,45.2270565 66.0760307,45.2362898 66.0983347,45.2362898 L66.1429426,45.2362898 L66.1875506,45.2362898 L66.1875506,45.2362898 L66.1875506,45.2362898 C67.3648129,45.2362898 68.4644962,45.6308021 69.2975014,46.3518363 C70.1305067,47.0728704 70.5862837,48.0247362 70.5862837,49.0437531 L70.5862837,49.0437531 L70.5862837,49.0437531 C70.5862837,49.4575713 70.9635119,49.7840932 71.4309258,49.7933264 L71.4532298,49.7933264 L71.4532298,49.7933264 L71.4532298,49.7933264 C71.9313108,49.7933264 72.308539,49.4668045 72.3192061,49.0622196 L72.3192061,49.0429137 L72.3192061,49.0429137 L72.3192061,49.0429137 C72.3192061,48.0238968 72.7749831,47.072031 73.6079883,46.3509969 C74.4409936,45.6299627 75.5406768,45.2354504 76.7179392,45.2354504 L76.7179392,45.2354504 L76.7179392,45.2354504 C77.1291082,45.2354504 77.4840325,44.9853128 77.5732484,44.6487183 L77.5732484,44.6470395 C77.5945826,44.6277336 77.6062195,44.617661 77.6062195,44.5991944 L77.6062195,44.5991944 Z M72.3967852,45.29085 C72.0408912,45.5989054 71.7305749,45.9447331 71.474564,46.3199395 C71.2195228,45.9548058 70.9082368,45.6081386 70.5523428,45.29085 C70.1964489,44.9827947 69.7969167,44.7141906 69.3634436,44.4925922 C69.7852798,44.2718332 70.1857818,44.0023897 70.5523428,43.6943343 C70.9082368,43.386279 71.2185531,43.0404512 71.474564,42.6652448 C71.7296052,43.0303785 72.0408912,43.3770457 72.3967852,43.6943343 C72.7526791,44.0023897 73.1522113,44.2709938 73.5856844,44.4925922 C73.1512416,44.7141906 72.7633462,44.9836341 72.3967852,45.29085 L72.3967852,45.29085 Z M63.577015,69.3754055 C63.577015,69.3082545 63.5663479,69.2411034 63.5440439,69.173113 L63.5440439,69.173113 C63.5333768,69.1538071 63.5217399,69.1252679 63.5217399,69.105962 C63.5217399,69.0967287 63.5110728,69.0866561 63.5110728,69.0774228 C63.5004057,69.0681895 63.5004057,69.0488836 63.4887688,69.038811 C63.3442778,68.8079793 63.0669326,68.6543713 62.7449795,68.6442987 L62.7226755,68.6442987 L62.7226755,68.6442987 L62.7226755,68.6442987 L62.7226755,68.6442987 C62.2232603,68.6442987 61.6559634,68.2019413 61.2118232,67.4716738 C60.6784671,66.5676531 60.3671811,65.3085714 60.3671811,64.0008051 L60.3671811,64.0008051 L60.3671811,64.0008051 C60.3671811,63.9042755 60.3448771,63.8178186 60.311906,63.7313616 C60.3012389,63.7028224 60.2789349,63.6642106 60.2672981,63.634832 L60.2672981,63.634832 C60.122807,63.4040003 59.833825,63.2403197 59.5012048,63.2403197 L59.5012048,63.2403197 L59.5012048,63.2403197 C59.3237427,63.2403197 59.1569477,63.2881648 59.0124567,63.3653885 L59.0124567,63.3653885 C58.9901527,63.3746218 58.9678487,63.3939277 58.9455447,63.4040003 L58.9455447,63.4040003 C58.9348776,63.4132336 58.9232407,63.4233063 58.9009367,63.4325395 C58.8902696,63.4417728 58.8902696,63.4417728 58.8786328,63.4518455 C58.8669959,63.4619181 58.8456617,63.4803846 58.8340248,63.4904573 L58.8233577,63.4996906 C58.8126906,63.5189965 58.7903866,63.5282297 58.7787497,63.5475357 C58.7787497,63.5475357 58.7787497,63.5567689 58.7680826,63.5567689 C58.6788667,63.6717651 58.6235916,63.8069065 58.6235916,63.9605145 L58.6235916,63.9798204 L58.6235916,63.9798204 L58.6235916,63.9798204 C58.6235916,65.2875867 58.3123056,66.5466684 57.7789495,67.4506892 C57.3348093,68.181796 56.7791493,68.623314 56.2680972,68.623314 L56.2680972,68.623314 L56.2680972,68.623314 L56.2680972,68.623314 L56.2457932,68.623314 C56.0120862,68.6325472 55.801653,68.7097709 55.657162,68.844073 C55.657162,68.844073 55.657162,68.8533062 55.6464949,68.8533062 C55.6358278,68.8726122 55.6135238,68.8818454 55.6018869,68.9011514 C55.5912198,68.9103846 55.5795829,68.9204573 55.5795829,68.9296905 C55.5689158,68.9389238 55.5689158,68.9489965 55.557279,68.9582297 C55.468063,69.0732259 55.412788,69.2083673 55.412788,69.3619753 L55.412788,69.3812812 L55.412788,69.3812812 L55.412788,69.3812812 L55.412788,69.4005871 C55.412788,69.4677381 55.4234551,69.5348892 55.4457591,69.6028796 L55.4457591,69.6028796 C55.4564262,69.6221855 55.468063,69.6507247 55.468063,69.6700306 C55.468063,69.6792639 55.4787302,69.6893365 55.4787302,69.6985698 C55.4893973,69.7078031 55.4893973,69.727109 55.5010341,69.7371816 C55.6455252,69.9680133 55.9228703,70.1216213 56.2448234,70.1316939 L56.2671274,70.1316939 L56.2671274,70.1316939 L56.2671274,70.1316939 L56.2671274,70.1316939 C56.7665427,70.1316939 57.3338396,70.5740513 57.7779798,71.3043188 C58.3113358,72.2083395 58.6226218,73.4674212 58.6226218,74.7751875 L58.6226218,74.7751875 L58.6226218,74.7751875 C58.6226218,74.9002563 58.6555929,75.0152524 58.7118378,75.111782 C58.7118378,75.1210153 58.7225049,75.1210153 58.7225049,75.1310879 L58.7225049,75.1310879 C58.8669959,75.3619196 59.1559779,75.5256002 59.4885982,75.5256002 L59.4885982,75.5256002 L59.4885982,75.5256002 C59.6660603,75.5256002 59.8328553,75.4777551 59.9773463,75.4005314 L59.9773463,75.4005314 C59.9996503,75.3912982 60.0219543,75.3719923 60.0442582,75.3619196 L60.0442582,75.3619196 C60.0549254,75.3526863 60.0665622,75.3426137 60.0888662,75.3333804 C60.0995333,75.3241472 60.0995333,75.3241472 60.1111702,75.3140745 C60.1218373,75.3048412 60.1441413,75.2855353 60.1557781,75.2754627 L60.1664453,75.2662294 C60.1771124,75.2469235 60.1994164,75.2376902 60.2110532,75.2183843 C60.2110532,75.2183843 60.2110532,75.209151 60.2217204,75.209151 C60.3109363,75.0941549 60.3662114,74.9590134 60.3662114,74.8054055 L60.3662114,74.7860995 L60.3662114,74.7860995 L60.3662114,74.7860995 C60.3662114,73.4783333 60.6774974,72.2192515 61.2108535,71.3152308 C61.6549936,70.584124 62.2106537,70.142606 62.7217058,70.142606 L62.7217058,70.142606 L62.7217058,70.142606 L62.7217058,70.142606 L62.7440098,70.142606 C62.9777167,70.1333727 63.1881499,70.056149 63.3326409,69.921847 C63.3326409,69.921847 63.3326409,69.9126137 63.3433081,69.9126137 C63.3539752,69.8933078 63.3762792,69.8840745 63.387916,69.8647686 C63.3985831,69.8555353 63.41022,69.8454627 63.41022,69.8362294 C63.4208871,69.8269961 63.4208871,69.8169235 63.432524,69.8076902 C63.5217399,69.6926941 63.577015,69.5575526 63.577015,69.4039447 L63.577015,69.3846388 L63.577015,69.3846388 L63.577015,69.3846388 C63.577015,69.3854781 63.577015,69.3854781 63.577015,69.3754055 L63.577015,69.3754055 Z M59.644726,70.625254 C59.589451,70.7217836 59.5332061,70.8275465 59.4779311,70.9333093 C59.422656,70.8275465 59.3664111,70.7217836 59.3111361,70.625254 C59.0114869,70.1249788 58.6555929,69.712 58.2783647,69.3947114 C58.6672298,69.0774228 59.0114869,68.6636046 59.3111361,68.1540962 C59.3664111,68.0575666 59.422656,67.9518037 59.4779311,67.8460408 C59.5332061,67.9518037 59.589451,68.0575666 59.644726,68.1540962 C59.9443752,68.6543713 60.3002692,69.0673501 60.6774974,69.3846388 C60.3002692,69.712 59.9443752,70.1258182 59.644726,70.625254 L59.644726,70.625254 Z M45.2935684,43.0799024 C41.1169054,43.0799024 37.7519134,44.3398236 35.8182552,46.6279949 L35.229624,47.3775682 L35.8405591,48.0029121 C35.9734133,48.1472869 39.050393,51.521626 45.3042355,51.521626 C51.4135871,51.521626 54.6127538,48.1565201 54.745608,48.0222181 L55.3895142,47.3876409 L54.7902159,46.6179222 C52.8468603,44.3389842 49.4808986,43.0799024 45.2935684,43.0799024 L45.2935684,43.0799024 Z M42.7829159,48.9925504 C40.8172563,48.6081108 39.4731989,47.877004 38.6954688,47.3095778 C39.7282401,46.4827808 41.1392094,45.8482035 42.8168567,45.5695268 C42.3727166,46.0404234 42.1060385,46.6464614 42.1060385,47.3003445 C42.1167056,47.9449944 42.3610797,48.5308871 42.7829159,48.9925504 L42.7829159,48.9925504 Z M47.8148881,48.9833171 C48.2260571,48.5216538 48.4704312,47.9349217 48.4704312,47.3104172 C48.4704312,46.656534 48.2037532,46.050496 47.759613,45.5795994 C49.4256235,45.8582762 50.8365927,46.4928534 51.8693641,47.3104172 C51.0916339,47.8677707 49.7369095,48.5888049 47.8148881,48.9833171 L47.8148881,48.9833171 Z M41.7947525,4.73666562 L41.8170565,4.73666562 C43.3385759,4.74589888 44.5943871,5.82283349 44.6157213,7.14990567 L44.6157213,7.17844486 C44.6157213,7.59226307 45.0045864,7.93809086 45.4933345,7.93809086 L45.4933345,7.93809086 L45.4933345,7.93809086 C45.9714155,7.93809086 46.3709477,7.60149633 46.3709477,7.17844486 L46.3709477,7.13059975 C46.4039188,5.82283349 47.6480931,4.74589888 49.1696125,4.73666562 L49.1919165,4.73666562 C49.6699975,4.73666562 50.0695297,4.40007109 50.0695297,3.97701962 C50.0695297,3.56320141 49.6806647,3.21737361 49.1919165,3.21737361 L49.1696125,3.21737361 C47.6364562,3.20814035 46.3816148,2.12113309 46.3709477,0.804133557 L46.3709477,0.77559437 C46.3709477,0.361776162 45.9820826,0.0159483691 45.4933345,0.0159483691 C45.0045864,0.0159483691 44.6157213,0.352542895 44.6157213,0.77559437 L44.6157213,0.804133557 C44.5934173,2.13120574 43.3492431,3.20814035 41.8170565,3.21737361 L41.7947525,3.21737361 C41.6056535,3.21737361 41.4175243,3.27529138 41.2730333,3.37098159 L41.2730333,3.37098159 C40.9733841,3.56320141 40.8511971,3.9090292 40.9733841,4.21708454 C41.0955712,4.52513988 41.4165546,4.73666562 41.7947525,4.73666562 L41.7947525,4.73666562 Z M45.4933345,3.09230483 C45.7823165,3.42889935 46.1265737,3.72688204 46.5154387,3.97701962 C46.1265737,4.22715719 45.7823165,4.52513988 45.4933345,4.8617344 C45.2043525,4.52513988 44.8600954,4.22715719 44.4712303,3.97701962 C44.8600954,3.73695469 45.2043525,3.43897201 45.4933345,3.09230483 L45.4933345,3.09230483 Z M19.3462798,25.1295933 L19.3462798,25.1295933 C19.7574488,25.1388266 20.468267,25.7549373 21.1567813,27.1105487 C21.8123244,28.4183149 22.1672486,29.8318441 22.1788855,30.5621115 L22.1788855,30.5906507 C22.1788855,31.0044689 22.5677505,31.3502967 23.0564987,31.3502967 L23.0564987,31.3502967 L23.0564987,31.3502967 C23.5345797,31.3502967 23.9341119,31.0137021 23.9341119,30.5906507 L23.9341119,30.5428056 C23.944779,29.8024655 24.3006729,28.399009 24.9445792,27.1105487 C25.6224263,25.7549373 26.3332445,25.139666 26.7444135,25.1295933 L26.7550807,25.1295933 C26.9441796,25.1295933 27.1323089,25.0716756 27.2767999,24.9759854 C27.576449,24.7837655 27.6986361,24.4379378 27.576449,24.1298824 C27.454262,23.8218271 27.120672,23.6103013 26.7541109,23.6103013 L26.7434438,23.6103013 C26.3439116,23.6010681 25.6330934,22.9849574 24.9436095,21.629346 C24.2880663,20.3215798 23.9331421,18.9080506 23.9215053,18.1777832 L23.9215053,18.149244 C23.9215053,17.7354258 23.5326402,17.389598 23.0438921,17.389598 C22.5551439,17.389598 22.1662789,17.7261925 22.1662789,18.149244 L22.1662789,18.1777832 C22.1556117,18.90889 21.8103849,20.3316524 21.1441747,21.629346 C20.4779644,22.99503 19.7671462,23.6103013 19.3559772,23.6195346 L19.3230061,23.6195346 C19.2560941,23.6195346 19.1785151,23.6287679 19.1116031,23.6480738 C18.7343749,23.7345307 18.45606,24.0325134 18.4676969,24.3884139 C18.4909706,24.8022321 18.8798356,25.1295933 19.3462798,25.1295933 L19.3462798,25.1295933 Z M22.7558798,22.2446173 C22.8557628,22.0423248 22.9556459,21.8307991 23.0448618,21.6192734 C23.1340777,21.8307991 23.2339608,22.0423248 23.3338438,22.2446173 C23.800288,23.1771772 24.3220072,23.8889781 24.8893041,24.3791806 C24.3229769,24.8601498 23.800288,25.581184 23.3338438,26.5137439 C23.2339608,26.7160364 23.1340777,26.9275621 23.0448618,27.1390878 C22.9556459,26.9275621 22.8557628,26.7160364 22.7558798,26.5137439 C22.2894356,25.581184 21.7677164,24.8693831 21.2004195,24.3791806 C21.7677164,23.8889781 22.2894356,23.1771772 22.7558798,22.2446173 L22.7558798,22.2446173 Z M59.1230068,27.2255448 L61.0556953,27.2255448 L59.689334,28.4082423 C59.3450769,28.706225 59.3450769,29.1771215 59.689334,29.4751042 C59.856129,29.6194789 60.0781991,29.6958632 60.3109363,29.6958632 C60.5330064,29.6958632 60.7550764,29.6186395 60.9325386,29.4751042 L62.2988999,28.2924067 L62.2988999,29.9653067 C62.2988999,30.3791249 62.6877649,30.7249527 63.1765131,30.7249527 C63.6652612,30.7249527 64.0541263,30.3883582 64.0541263,29.9653067 L64.0541263,28.2924067 L65.4204876,29.4751042 C65.5872826,29.6194789 65.8093526,29.6958632 66.0420898,29.6958632 C66.2757968,29.6958632 66.48623,29.6186395 66.6636921,29.4751042 C67.0079492,29.1771215 67.0079492,28.706225 66.6636921,28.4082423 L65.2973308,27.2255448 L67.2300193,27.2255448 C67.7081003,27.2255448 68.1076325,26.8889503 68.1076325,26.4658988 C68.1076325,26.0428473 67.7187674,25.7062528 67.2300193,25.7062528 L65.2973308,25.7062528 L66.6636921,24.5235553 C67.0079492,24.2255726 67.0079492,23.754676 66.6636921,23.4566934 C66.319435,23.1587107 65.7754118,23.1587107 65.4311547,23.4566934 L64.0647934,24.6393908 L64.0647934,22.9656515 C64.0647934,22.5518333 63.6759283,22.2060055 63.1871802,22.2060055 C62.6984321,22.2060055 62.309567,22.5426 62.309567,22.9656515 L62.309567,24.6385514 L60.9432057,23.455854 C60.5989486,23.1578713 60.0549254,23.1578713 59.7106683,23.455854 C59.3664111,23.7538367 59.3664111,24.2247332 59.7106683,24.5227159 L61.0770296,25.7054134 L59.1220371,25.7054134 C58.6439561,25.7054134 58.2444239,26.0420079 58.2444239,26.4650594 C58.2453936,26.8889503 58.6342587,27.2255448 59.1230068,27.2255448 L59.1230068,27.2255448 Z M26.4884026,63.9915718 L28.4210911,63.9915718 C28.8991721,63.9915718 29.2987043,63.6549773 29.2987043,63.2319258 C29.2987043,62.8088744 28.9098392,62.4722798 28.4210911,62.4722798 L26.4884026,62.4722798 L29.0766342,60.2319537 C29.4208914,59.933971 29.4208914,59.4630744 29.0766342,59.1650917 C28.7323771,58.867109 28.1883539,58.867109 27.8440968,59.1650917 L25.2558652,61.4054179 L25.2558652,55.627072 C25.2558652,55.2132537 24.8670001,54.867426 24.378252,54.867426 C23.8895039,54.867426 23.5006388,55.2040205 23.5006388,55.627072 L23.5006388,61.4054179 L20.9124072,59.1751644 C20.5681501,58.8771817 20.0241269,58.8771817 19.6798698,59.1751644 C19.3356127,59.4731471 19.3356127,59.9440436 19.6798698,60.2420263 L22.2681014,62.4823525 L20.3354129,62.4823525 C19.8573319,62.4823525 19.4577997,62.818947 19.4577997,63.2419985 C19.4577997,63.66505 19.8466648,64.0016445 20.3354129,64.0016445 L22.2681014,64.0016445 L19.6798698,66.2419707 C19.3356127,66.5399533 19.3356127,67.0108499 19.6798698,67.3088326 C19.8466648,67.4532073 20.0687348,67.5295916 20.301472,67.5295916 C20.535179,67.5295916 20.7456122,67.4523679 20.9230743,67.3088326 L23.5113059,65.0685064 L23.5113059,70.8468524 C23.5113059,71.2606706 23.900171,71.6064984 24.3889191,71.6064984 C24.8776673,71.6064984 25.2665323,71.2699039 25.2665323,70.8468524 L25.2665323,65.0685064 L27.8547639,67.3088326 C28.0215589,67.4532073 28.243629,67.5295916 28.4763662,67.5295916 C28.7091034,67.5295916 28.9205064,67.4523679 29.0979685,67.3088326 C29.4422256,67.0108499 29.4422256,66.5399533 29.0979685,66.2419707 L26.4884026,63.9915718 L26.4884026,63.9915718 Z" id="Shape"></path>
                </g>
            </g>
        </g>
    </g>
</svg>