<?xml version="1.0" encoding="UTF-8" standalone="no"?>
<svg width="36px" height="60px" viewBox="0 0 36 60" version="1.1" xmlns="http://www.w3.org/2000/svg" xmlns:xlink="http://www.w3.org/1999/xlink" xmlns:sketch="http://www.bohemiancoding.com/sketch/ns">
    <!-- Generator: Sketch 3.4.4 (17249) - http://www.bohemiancoding.com/sketch -->
    <title>server</title>
    <desc>Created with Sketch.</desc>
    <defs></defs>
    <g id="Assets" stroke="none" stroke-width="1" fill="none" fill-rule="evenodd" sketch:type="MSPage">
        <g id="Icons" sketch:type="MSArtboardGroup" transform="translate(-375.000000, -158.000000)" fill="#F5A623">
            <g id="server" sketch:type="MSLayerGroup" transform="translate(375.000000, 158.000000)">
                <path d="M34.242613,27.2668541 C33.8713037,27.2668541 33.5282868,27.4719997 33.3478946,27.7995876 L18.0452226,56.9881985 L17.267182,56.9881985 L17.0832815,56.6407987 L1.95398527,27.7815034 C1.78072271,27.466586 1.43589512,27.2631682 1.0662834,27.2631682 C0.498624992,27.2631682 0.037119609,27.7328951 0.037119609,28.3123939 L0.037119609,58.0374243 C0.037119609,58.6151953 0.498624992,59.0866501 1.0662834,59.0866501 L34.242613,59.0902208 C34.8102714,59.0902208 35.2717768,58.6186509 35.2717768,58.040995 L35.2717768,28.3179229 C35.2717768,27.7383088 34.8102714,27.2668541 34.242613,27.2668541 L34.242613,27.2668541 Z M2.0954472,56.9881985 L2.0954472,32.5041137 L14.929552,56.9881985 L2.0954472,56.9881985 L2.0954472,56.9881985 Z M33.2134492,56.99534 L20.3810419,56.9881985 L33.2134492,32.5077996 L33.2134492,56.99534 L33.2134492,56.99534 Z" id="Shape" sketch:type="MSShapeGroup"></path>
                <path d="M17.6544482,24.9253609 C18.2219934,24.9253609 18.6853095,24.455634 18.6853095,23.8761351 C18.6853095,23.2966363 18.2219934,22.8250664 17.6544482,22.8250664 C17.0867898,22.8250664 16.6235869,23.2966363 16.6235869,23.8761351 C16.6235869,24.455634 17.0869029,24.9253609 17.6544482,24.9253609 L17.6544482,24.9253609 Z" id="Shape" sketch:type="MSShapeGroup"></path>
                <path d="M17.6544482,35.1750377 C18.2219934,35.1750377 18.6853095,34.7034678 18.6853095,34.123969 C18.6853095,33.5480409 18.2219934,33.076471 17.6544482,33.076471 C17.0867898,33.076471 16.6235869,33.5480409 16.6235869,34.123969 C16.6235869,34.7034678 17.0869029,35.1750377 17.6544482,35.1750377 L17.6544482,35.1750377 Z" id="Shape" sketch:type="MSShapeGroup"></path>
                <path d="M17.6544482,45.4247146 C18.2219934,45.4247146 18.6853095,44.9531446 18.6853095,44.3736458 C18.6853095,43.7958748 18.2219934,43.32442 17.6544482,43.32442 C17.0867898,43.32442 16.6235869,43.79599 16.6235869,44.3736458 C16.6235869,44.9532598 17.0869029,45.4247146 17.6544482,45.4247146 L17.6544482,45.4247146 Z" id="Shape" sketch:type="MSShapeGroup"></path>
                <path d="M33.6308184,0.201805199 L22.7700509,3.91469833 L22.4906353,3.53493136 C21.3342689,1.98361149 19.5695031,1.09092297 17.6544482,1.09092297 C15.7375825,1.09092297 13.9746274,1.98361149 12.8182611,3.5386173 L12.5371479,3.9165413 L1.69935381,0.208946707 C0.829306387,-0.114955244 0.037119609,0.446459446 0.037119609,1.16636954 L0.037119609,13.3580758 C0.037119609,14.0851274 0.953113863,14.6034627 1.68509445,14.3227554 L12.5370348,10.6098622 L12.8181479,10.9877862 C13.976325,12.544635 15.7392801,13.4373235 17.654335,13.4373235 C19.5692768,13.4373235 21.3305343,12.544635 22.4905221,10.9877862 L22.7699377,10.6098622 L33.5970939,14.3120431 C34.4546927,14.6467725 35.2716636,14.0816719 35.2716636,13.358191 L35.2716636,1.16648473 C35.2717768,0.443003878 34.3858856,-0.0861588405 33.6308184,0.201805199 L33.6308184,0.201805199 Z M2.39432795,11.8337094 L2.39432795,2.68912338 L11.7166688,5.87838271 L11.6441271,6.41837287 C11.6088182,6.69550946 11.589353,6.97805978 11.589353,7.26061009 C11.589353,7.54673116 11.6088182,7.82939666 11.6441271,8.10653326 L11.7183663,8.64652342 L2.39432795,11.8337094 L2.39432795,11.8337094 Z M17.6544482,11.3387568 C15.4458315,11.3387568 13.649265,9.51018517 13.649265,7.26049491 C13.649265,5.0143754 15.4458315,3.18764673 17.6544482,3.18764673 C19.8629518,3.18764673 21.6595182,5.0143754 21.6595182,7.26049491 C21.6596314,9.51018517 19.8630649,11.3387568 17.6544482,11.3387568 L17.6544482,11.3387568 Z M32.9146816,11.8337094 L23.5905301,8.64629305 L23.6647693,8.10814585 C23.7000782,7.83273705 23.7195433,7.54845895 23.7195433,7.26049491 C23.7195433,6.97967238 23.7000782,6.69539428 23.6647693,6.42182844 L23.5905301,5.87826752 L32.9146816,2.6890082 L32.9146816,11.8337094 L32.9146816,11.8337094 Z" id="Shape" sketch:type="MSShapeGroup"></path>
            </g>
        </g>
    </g>
</svg>