<?xml version="1.0" encoding="UTF-8" standalone="no"?>
<svg width="63px" height="60px" viewBox="0 0 63 60" version="1.1" xmlns="http://www.w3.org/2000/svg" xmlns:xlink="http://www.w3.org/1999/xlink" xmlns:sketch="http://www.bohemiancoding.com/sketch/ns">
    <!-- Generator: Sketch 3.4.4 (17249) - http://www.bohemiancoding.com/sketch -->
    <title>theatre</title>
    <desc>Created with Sketch.</desc>
    <defs></defs>
    <g id="Assets" stroke="none" stroke-width="1" fill="none" fill-rule="evenodd" sketch:type="MSPage">
        <g id="Icons" sketch:type="MSArtboardGroup" transform="translate(-418.000000, -158.000000)" fill="#F5A623">
            <g id="theatre" sketch:type="MSLayerGroup" transform="translate(418.000000, 158.000000)">
                <path d="M61.8346237,49.4518502 C61.7655241,49.310357 61.7655241,49.2396105 61.6964245,49.1688639 L61.6964245,49.0981173 L58.034145,42.0942072 L58.034145,7.28689638 L58.034145,7.07465668 L58.034145,1.83941074 C58.034145,1.0611985 57.4122484,0.424479401 56.6521527,0.424479401 L5.65663738,0.424479401 C4.89654163,0.424479401 4.2746451,1.0611985 4.2746451,1.83941074 L4.2746451,42.0942072 L0.612365547,49.0981173 L0.612365547,49.1688639 C0.543265932,49.2396105 0.543265932,49.310357 0.543265932,49.4518502 L0.543265932,49.5225967 C0.543265932,49.5933433 0.474166318,49.7348364 0.474166318,49.805583 L0.474166318,57.5877054 C0.474166318,58.3659176 1.09606285,59.0026367 1.8561586,59.0026367 L60.5908307,59.0026367 C61.3509264,59.0026367 61.972823,58.3659176 61.972823,57.5877054 L61.972823,49.805583 C61.9037234,49.6640899 61.9037234,49.5933433 61.8346237,49.4518502 L61.8346237,49.4518502 Z M7.03862967,9.83377278 C7.72962581,10.0460125 8.55882118,10.1875056 9.38801655,10.1875056 C10.56271,10.1875056 11.5992042,9.97526592 12.4974992,9.55078652 C13.3957942,9.97526592 14.4322884,10.1875056 15.6069818,10.1875056 C16.1597787,10.1875056 16.643476,10.1167591 17.1271733,10.0460125 L17.1271733,42.8016729 C16.7125757,42.943166 16.1597787,43.0139126 15.6069818,43.0139126 C14.501388,43.0139126 13.6721926,42.7309263 13.3266946,42.4479401 C13.1193957,42.2357004 12.7738976,42.1649538 12.4974992,42.1649538 C12.2211007,42.1649538 11.9447023,42.2357004 11.6683038,42.4479401 C11.3228058,42.7309263 10.4936104,43.0139126 9.38801655,43.0139126 C8.00602427,43.0139126 7.24592851,42.5894332 7.03862967,42.3771935 L7.03862967,9.83377278 L7.03862967,9.83377278 Z M19.8911579,9.90451935 C20.5130544,10.0460125 21.134951,10.1167591 21.8259471,10.1167591 C23.0006406,10.1167591 24.0371348,9.90451935 24.9354298,9.48003995 C25.8337247,9.90451935 26.870219,10.1167591 28.0449124,10.1167591 C29.2196058,10.1167591 30.2561,9.90451935 31.154395,9.48003995 C32.05269,9.90451935 33.0891842,10.1167591 34.2638777,10.1167591 C35.4385711,10.1167591 36.4750653,9.90451935 37.3733603,9.48003995 C38.2716553,9.90451935 39.3081495,10.1167591 40.482843,10.1167591 C41.1738391,10.1167591 41.7957356,10.0460125 42.4176321,9.90451935 L42.4176321,34.8073109 L19.8911579,34.8073109 L19.8911579,9.90451935 L19.8911579,9.90451935 Z M45.1816167,10.0460125 C45.665314,10.1167591 46.1490113,10.1875056 46.7018082,10.1875056 C47.8765017,10.1875056 48.9129959,9.97526592 49.8112909,9.55078652 C50.7095859,9.97526592 51.7460801,10.1875056 52.9207735,10.1875056 C53.8190685,10.1875056 54.5791643,10.0460125 55.2701604,9.83377278 L55.2701604,42.3771935 C55.0628616,42.5894332 54.2336662,43.0139126 52.9207735,43.0139126 C51.8151797,43.0139126 50.9859843,42.7309263 50.6404862,42.4479401 C50.4331874,42.2357004 50.0876893,42.1649538 49.8112909,42.1649538 C49.5348924,42.1649538 49.258494,42.2357004 48.9820955,42.4479401 C48.6365974,42.7309263 47.8074021,43.0139126 46.7018082,43.0139126 C46.1490113,43.0139126 45.5962144,42.943166 45.1816167,42.8016729 L45.1816167,10.0460125 L45.1816167,10.0460125 Z M7.03862967,3.25434207 L55.2701604,3.25434207 L55.2701604,6.65017728 C55.0628616,6.86241698 54.2336662,7.28689638 52.9207735,7.28689638 C51.8151797,7.28689638 50.9859843,7.00391011 50.6404862,6.72092384 C50.4331874,6.50868414 50.0876893,6.43793758 49.8112909,6.43793758 C49.5348924,6.43793758 49.258494,6.50868414 48.9820955,6.72092384 C48.6365974,7.00391011 47.8074021,7.28689638 46.7018082,7.28689638 C45.5962144,7.28689638 44.767019,7.00391011 44.421521,6.72092384 C43.9378237,6.36719101 43.3159271,6.36719101 42.8322298,6.72092384 C42.4867318,7.00391011 41.6575364,7.28689638 40.5519426,7.28689638 C39.4463487,7.28689638 38.6171534,7.00391011 38.2716553,6.72092384 C37.787958,6.36719101 37.1660615,6.36719101 36.6823642,6.72092384 C36.3368661,7.00391011 35.5076707,7.28689638 34.4020769,7.28689638 C33.2964831,7.28689638 32.4672877,7.00391011 32.1217896,6.72092384 C31.6380923,6.36719101 31.0161958,6.36719101 30.5324985,6.72092384 C30.1870004,7.00391011 29.3578051,7.28689638 28.2522112,7.28689638 C27.1466174,7.28689638 26.317422,7.00391011 25.971924,6.72092384 C25.4882267,6.36719101 24.8663301,6.36719101 24.3826328,6.72092384 C24.0371348,7.00391011 23.2079394,7.28689638 22.1023456,7.28689638 C20.9967517,7.28689638 20.1675564,7.00391011 19.8220583,6.72092384 C19.338361,6.36719101 18.7164645,6.36719101 18.2327672,6.72092384 C17.8872691,7.00391011 17.0580737,7.28689638 15.9524799,7.28689638 C14.8468861,7.28689638 14.0176907,7.00391011 13.6721926,6.72092384 C13.1884953,6.36719101 12.5665988,6.36719101 12.0829015,6.72092384 C11.7374034,7.00391011 10.9082081,7.28689638 9.80261424,7.28689638 C8.42062195,7.28689638 7.6605262,6.86241698 7.45322735,6.65017728 L7.45322735,3.25434207 L7.03862967,3.25434207 Z M5.93303584,44.9948165 C6.83133083,45.4900424 8.07512388,45.8437753 9.45711617,45.8437753 C10.6318096,45.8437753 11.6683038,45.6315356 12.5665988,45.2070562 C13.4648938,45.6315356 14.501388,45.8437753 15.6760814,45.8437753 C17.0580737,45.8437753 18.3709664,45.4900424 19.2692614,44.9240699 C19.6838591,44.6410836 19.9602575,44.2166042 19.9602575,43.7213783 L19.9602575,37.7079201 L42.4867318,37.7079201 L42.4867318,43.7213783 C42.4867318,44.2166042 42.7631302,44.7118302 43.1777279,44.9240699 C44.1451225,45.4900424 45.3889156,45.8437753 46.7709078,45.8437753 C47.9456013,45.8437753 48.9820955,45.6315356 49.8803905,45.2070562 C50.7786855,45.6315356 51.8151797,45.8437753 52.9898731,45.8437753 C54.3718654,45.8437753 55.6156585,45.560789 56.5139535,44.9948165 L58.3105434,48.3906517 L4.13644587,48.3906517 L5.93303584,44.9948165 L5.93303584,44.9948165 Z M59.1397388,56.172774 L3.16905127,56.172774 L3.16905127,51.2205144 L59.1397388,51.2205144 L59.1397388,56.172774 L59.1397388,56.172774 Z" id="Shape" sketch:type="MSShapeGroup"></path>
            </g>
        </g>
    </g>
</svg>