<?xml version="1.0" encoding="UTF-8" standalone="no"?>
<svg width="57px" height="56px" viewBox="0 0 57 56" version="1.1" xmlns="http://www.w3.org/2000/svg" xmlns:xlink="http://www.w3.org/1999/xlink" xmlns:sketch="http://www.bohemiancoding.com/sketch/ns">
    <!-- Generator: Sketch 3.4.4 (17249) - http://www.bohemiancoding.com/sketch -->
    <title>twitterIcon</title>
    <desc>Created with Sketch.</desc>
    <defs>
        <filter x="-50%" y="-50%" width="200%" height="200%" filterUnits="objectBoundingBox" id="filter-1">
            <feOffset dx="0" dy="2" in="SourceAlpha" result="shadowOffsetOuter1"></feOffset>
            <feGaussianBlur stdDeviation="2" in="shadowOffsetOuter1" result="shadowBlurOuter1"></feGaussianBlur>
            <feColorMatrix values="0 0 0 0 0   0 0 0 0 0   0 0 0 0 0  0 0 0 0.35 0" in="shadowBlurOuter1" type="matrix" result="shadowMatrixOuter1"></feColorMatrix>
            <feMerge>
                <feMergeNode in="shadowMatrixOuter1"></feMergeNode>
                <feMergeNode in="SourceGraphic"></feMergeNode>
            </feMerge>
        </filter>
        <ellipse id="path-2" cx="24.1546114" cy="24.1297297" rx="24.1546114" ry="24.1297297"></ellipse>
    </defs>
    <g id="Assets" stroke="none" stroke-width="1" fill="none" fill-rule="evenodd" sketch:type="MSPage">
        <g id="Icons" sketch:type="MSArtboardGroup" transform="translate(-374.000000, -63.000000)">
            <g id="twitter-icon" sketch:type="MSLayerGroup" transform="translate(378.000000, 65.000000)">
                <g id="Oval-19-Copy-2" filter="url(#filter-1)">
                    <use fill="#FF5252" fill-rule="evenodd" sketch:type="MSShapeGroup" xlink:href="#path-2"></use>
                    <use fill="none" xlink:href="#path-2"></use>
                </g>
                <g id="twitter20" transform="translate(13.586969, 9.048649)" fill="#FFFFFF" sketch:type="MSShapeGroup">
                    <g id="Icons">
                        <path d="M18.2904403,22.6202811 L11.0060154,22.6202811 C9.99345152,22.6202811 9.13242778,22.2583351 8.42491227,21.5310919 C7.71411668,20.8031784 7.36281899,19.9234486 7.36281899,18.8838595 L7.36281899,16.2352865 L17.7423372,16.2352865 C18.678475,16.2352865 19.4847212,15.8914378 20.1545157,15.2087676 C20.8243101,14.5204 21.1601914,13.6976432 21.1601914,12.7401622 C21.1601914,11.7793297 20.8239821,10.9575784 20.1525476,10.2715568 C19.4804571,9.58721081 18.6719148,9.24403243 17.7318409,9.24403243 L7.36281899,9.24403243 L7.36281899,3.77161081 C7.36281899,2.73604324 7.00135303,1.84961081 6.28366924,1.11097297 C5.56893753,0.370994595 4.70463371,0 3.70059802,0 C2.66868158,0 1.78994535,0.365632432 1.07521364,1.08918919 C0.358185875,1.81509189 0,2.70923243 0,3.77496216 L0,18.8862054 C0,21.9942486 1.07521364,24.6495243 3.22662496,26.853373 C5.38000433,29.0612432 7.97553988,30.1621622 11.0102796,30.1621622 L18.2927363,30.1621622 C19.3039882,30.1621622 20.1719001,29.7911676 20.893848,29.0511892 C21.616452,28.3148973 21.9769339,27.4264541 21.9769339,26.3918919 C21.9769339,25.3569946 21.616452,24.470227 20.893848,23.7305838 C20.1715721,22.9926162 19.3023482,22.6202811 18.2904403,22.6202811 L18.2904403,22.6202811 Z" id="Twitter"></path>
                    </g>
                </g>
            </g>
        </g>
    </g>
</svg>