<?xml version="1.0" encoding="UTF-8" standalone="no"?>
<svg width="88px" height="75px" viewBox="0 0 88 75" version="1.1" xmlns="http://www.w3.org/2000/svg" xmlns:xlink="http://www.w3.org/1999/xlink" xmlns:sketch="http://www.bohemiancoding.com/sketch/ns">
    <!-- Generator: Sketch 3.4.4 (17249) - http://www.bohemiancoding.com/sketch -->
    <title>wizardWand</title>
    <desc>Created with Sketch.</desc>
    <defs></defs>
    <g id="Assets" stroke="none" stroke-width="1" fill="none" fill-rule="evenodd" sketch:type="MSPage">
        <g id="Icons" sketch:type="MSArtboardGroup" transform="translate(-330.000000, -321.000000)" fill-opacity="0.87" fill="#4A4A4A">
            <g id="wizardWand" sketch:type="MSLayerGroup" transform="translate(329.512132, 321.503963)">
                <g id="Group" sketch:type="MSShapeGroup">
                    <g transform="translate(1.141848, 0.000000)" id="Shape">
                        <path d="M47.222297,34.1051073 L49.4925912,37.9734953 L54.5835538,38.6086037 L50.868527,41.6109347 L51.7628853,45.8257455 L47.222297,43.8049458 L42.6817087,45.8257455 L43.576067,41.6109347 L39.8610402,38.6086037 L44.9520029,37.9734953 L47.222297,34.1051073 L47.222297,34.1051073 Z M47.222297,31.7956219 C46.1903451,31.7956219 45.22719,32.3152562 44.7456125,33.0658389 L43.0944895,35.8372213 L39.4482595,36.2991184 C38.4163076,36.4145926 37.5219493,37.0497011 37.2467621,37.858021 C36.9027781,38.724078 37.1779653,39.590135 37.93473,40.2252435 L40.6178049,42.3615174 L39.929837,45.4215855 C39.7234466,46.2876425 40.2050242,47.1536995 41.0305857,47.6733337 C41.5121632,47.9620194 42.0625376,48.1352308 42.6817087,48.1352308 C43.0944895,48.1352308 43.576067,48.0774937 43.920051,47.8465451 L47.222297,46.4031168 L50.524543,47.8465451 C50.9373238,48.0197565 51.3501045,48.1352308 51.7628853,48.1352308 C52.3132596,48.1352308 52.9324308,47.9620194 53.4140083,47.6733337 C54.2395698,47.1536995 54.6523506,46.2876425 54.514757,45.4215855 L53.8955859,42.3615174 L56.5786608,40.2252435 C57.3354255,39.590135 57.6106127,38.6663409 57.2666287,37.858021 C56.9226447,36.991964 56.0970832,36.4145926 55.0651313,36.2991184 L51.3501045,35.8372213 L49.6989815,33.0658389 C49.217404,32.257519 48.2542489,31.7956219 47.222297,31.7956219 L47.222297,31.7956219 L47.222297,31.7956219 Z"></path>
                        <path d="M57.6106127,15.7446988 L59.8809068,19.6130867 L64.9718694,20.2481952 L61.2568427,23.2505261 L62.151201,27.4653369 L57.6106127,25.4445372 L53.0700244,27.4653369 L53.9643827,23.2505261 L50.2493559,20.2481952 L55.3403185,19.6130867 L57.6106127,15.7446988 L57.6106127,15.7446988 Z M57.6106127,13.4352134 C56.5786608,13.4352134 55.6155057,13.9548476 55.1339281,14.7054303 L53.4828051,17.4768128 L49.7677783,17.9387098 C48.7358264,18.0541841 47.8414681,18.6892926 47.566281,19.4976124 C47.222297,20.3636695 47.4974842,21.2297265 48.2542489,21.8648349 L50.9373238,24.0011089 L50.3181527,27.061177 C50.1117623,27.927234 50.5933398,28.793291 51.4189013,29.3129252 C51.9004789,29.6016109 52.4508532,29.7748223 53.0700244,29.7748223 C53.4828051,29.7748223 53.9643827,29.7170851 54.3083666,29.4861366 L57.6106127,28.0427082 L60.9128587,29.4861366 C61.3256394,29.659348 61.7384202,29.7748223 62.151201,29.7748223 C62.7015753,29.7748223 63.3207464,29.6016109 63.802324,29.3129252 C64.6278855,28.793291 65.0406662,27.927234 64.9030727,27.061177 L64.2839015,24.058846 L66.9669764,21.9225721 C67.7237411,21.2874636 67.9989283,20.3636695 67.6549444,19.5553496 C67.3109604,18.6892926 66.4853989,18.1119212 65.453447,17.996447 L61.7384202,17.5345499 L60.0872972,14.7054303 C59.6057196,13.9548476 58.6425645,13.4352134 57.6106127,13.4352134 L57.6106127,13.4352134 L57.6106127,13.4352134 Z"></path>
                        <path d="M75.5665755,34.1051073 L77.8368696,37.9734953 L82.9278323,38.6086037 L79.2128055,41.6109347 L80.1071638,45.8257455 L75.5665755,43.8049458 L71.0259872,45.8257455 L71.9203455,41.6109347 L68.2053187,38.6086037 L73.2962813,37.9734953 L75.5665755,34.1051073 L75.5665755,34.1051073 Z M75.5665755,31.7956219 C74.5346236,31.7956219 73.5714685,32.3152562 73.089891,33.0658389 L71.4387679,35.8372213 L67.7237411,36.2991184 C66.6917893,36.4145926 65.797431,37.0497011 65.5222438,37.858021 C65.1782598,38.724078 65.453447,39.590135 66.2102117,40.2252435 L68.8932866,42.3615174 L68.2741155,45.4215855 C68.0677251,46.2876425 68.5493027,47.1536995 69.3748642,47.6733337 C69.8564417,47.9620194 70.406816,48.1352308 71.0259872,48.1352308 C71.4387679,48.1352308 71.9203455,48.0774937 72.2643294,47.8465451 L75.5665755,46.4031168 L78.8688215,47.8465451 C79.2816023,48.0197565 79.694383,48.1352308 80.1071638,48.1352308 C80.6575381,48.1352308 81.2767092,47.9620194 81.7582868,47.6733337 C82.5838483,47.1536995 82.9966291,46.2876425 82.8590355,45.4215855 L82.2398643,42.3615174 L84.8541425,40.2252435 C85.6109072,39.590135 85.8860943,38.6663409 85.5421104,37.858021 C85.1981264,36.991964 84.3725649,36.4145926 83.340613,36.2991184 L79.6255862,35.8372213 L77.9744632,33.0658389 C77.5616825,32.257519 76.5985274,31.7956219 75.5665755,31.7956219 L75.5665755,31.7956219 L75.5665755,31.7956219 Z"></path>
                        <path d="M32.4997834,32.7771532 C32.2933931,32.7771532 32.0870027,32.7194161 31.8806123,32.661679 L20.6667351,27.7540226 L9.45285797,32.661679 C8.97128042,32.8926275 8.42090608,32.8348904 8.00812533,32.5462047 C7.59534458,32.3152562 7.3889542,31.8533591 7.45775099,31.391462 L9.59045156,20.9987779 L0.509274957,13.6661619 C0.165290995,13.3774763 0.0276974099,12.9155792 0.165290995,12.4536821 C0.30288458,12.0495222 0.784462126,11.7030994 1.26603967,11.6453623 L13.7870559,10.2019339 L19.3595961,0.733043965 C19.5659865,0.328884028 20.047564,0.097935493 20.5979383,0.097935493 C21.1483127,0.097935493 21.6298902,0.328884028 21.8362806,0.733043965 L27.4776176,10.2019339 L39.9986338,11.7030994 C40.5490081,11.7608365 40.9617889,12.0495222 41.0993825,12.5114193 C41.2369761,12.9155792 41.0993825,13.3774763 40.7553985,13.7238991 L31.6742219,21.0565151 L33.8069225,31.4491991 C33.8757193,31.8533591 33.6693289,32.3152562 33.2565481,32.6039418 C33.0501578,32.7194161 32.7749706,32.7771532 32.4997834,32.7771532 L32.4997834,32.7771532 Z M20.6667351,25.2713258 C20.8731255,25.2713258 21.0795159,25.329063 21.2859063,25.3868001 L30.64227,29.4861366 L28.8535534,20.8255665 C28.7847566,20.4214066 28.9223502,20.0749838 29.2663342,19.7862981 L36.8339814,13.6661619 L26.3768689,12.395945 C25.8952914,12.3382079 25.5513074,12.1072593 25.344917,11.7608365 L20.6667351,3.85084919 L15.9885532,11.7608365 C15.7821629,12.1072593 15.3693821,12.3382079 14.9566014,12.395945 L4.43069212,13.6661619 L11.9983393,19.7862981 C12.3423233,20.0749838 12.4799168,20.4214066 12.41112,20.8255665 L10.6224034,29.4861366 L19.9787672,25.3868001 C20.1851576,25.329063 20.391548,25.2713258 20.6667351,25.2713258 L20.6667351,25.2713258 Z"></path>
                        <path d="M20.6667351,73.4240954 C19.9099704,73.4240954 19.2907993,72.9044612 19.2907993,72.2693527 L19.2907993,26.5415428 C19.2907993,25.9064343 19.9099704,25.3868001 20.6667351,25.3868001 C21.4234999,25.3868001 22.042671,25.9064343 22.042671,26.5415428 L22.042671,72.2693527 C22.042671,72.9044612 21.4234999,73.4240954 20.6667351,73.4240954 L20.6667351,73.4240954 Z"></path>
                    </g>
                </g>
            </g>
        </g>
    </g>
</svg>